<svg width="16" height="16" viewBox="0 0 16 16" fill="none" xmlns="http://www.w3.org/2000/svg">
<path fill-rule="evenodd" clip-rule="evenodd" d="M3.52876 3.52851C3.78911 3.26816 4.21122 3.26816 4.47157 3.52851L8.00016 7.05711L11.5288 3.52851C11.7891 3.26816 12.2112 3.26816 12.4716 3.52851C12.7319 3.78886 12.7319 4.21097 12.4716 4.47132L8.94297 7.99992L12.4716 11.5285C12.7319 11.7889 12.7319 12.211 12.4716 12.4713C12.2112 12.7317 11.7891 12.7317 11.5288 12.4713L8.00016 8.94273L4.47157 12.4713C4.21122 12.7317 3.78911 12.7317 3.52876 12.4713C3.26841 12.211 3.26841 11.7889 3.52876 11.5285L7.05735 7.99992L3.52876 4.47132C3.26841 4.21097 3.26841 3.78886 3.52876 3.52851Z" fill="#FCFCFD"/>
</svg>
