<svg width="24" height="24" viewBox="0 0 24 24" fill="none" xmlns="http://www.w3.org/2000/svg">
<rect x="1" y="1" width="22" height="22" rx="11" fill="#23262F"/>
<path d="M13.172 9.436C13.092 9.1 12.952 8.848 12.752 8.68C12.56 8.512 12.28 8.428 11.912 8.428C11.36 8.428 10.952 8.652 10.688 9.1C10.432 9.54 10.3 10.26 10.292 11.26C10.484 10.94 10.764 10.692 11.132 10.516C11.5 10.332 11.9 10.24 12.332 10.24C12.852 10.24 13.312 10.352 13.712 10.576C14.112 10.8 14.424 11.128 14.648 11.56C14.872 11.984 14.984 12.496 14.984 13.096C14.984 13.664 14.868 14.172 14.636 14.62C14.412 15.06 14.08 15.404 13.64 15.652C13.2 15.9 12.676 16.024 12.068 16.024C11.236 16.024 10.58 15.84 10.1 15.472C9.628 15.104 9.296 14.592 9.104 13.936C8.92 13.272 8.828 12.456 8.828 11.488C8.828 10.024 9.08 8.92 9.584 8.176C10.088 7.424 10.884 7.048 11.972 7.048C12.812 7.048 13.464 7.276 13.928 7.732C14.392 8.188 14.66 8.756 14.732 9.436H13.172ZM11.948 11.62C11.524 11.62 11.168 11.744 10.88 11.992C10.592 12.24 10.448 12.6 10.448 13.072C10.448 13.544 10.58 13.916 10.844 14.188C11.116 14.46 11.496 14.596 11.984 14.596C12.416 14.596 12.756 14.464 13.004 14.2C13.26 13.936 13.388 13.58 13.388 13.132C13.388 12.668 13.264 12.3 13.016 12.028C12.776 11.756 12.42 11.62 11.948 11.62Z" fill="#FCFCFD"/>
<rect x="1" y="1" width="22" height="22" rx="11" stroke="#FCFCFD" stroke-width="2"/>
</svg>
