<svg width="24" height="24" viewBox="0 0 24 24" fill="none" xmlns="http://www.w3.org/2000/svg">
<rect x="1" y="1" width="22" height="22" rx="11" fill="#23262F"/>
<path d="M8.66 9.556C8.7 8.756 8.98 8.14 9.5 7.708C10.028 7.268 10.72 7.048 11.576 7.048C12.16 7.048 12.66 7.152 13.076 7.36C13.492 7.56 13.804 7.836 14.012 8.188C14.228 8.532 14.336 8.924 14.336 9.364C14.336 9.868 14.204 10.296 13.94 10.648C13.684 10.992 13.376 11.224 13.016 11.344V11.392C13.48 11.536 13.84 11.792 14.096 12.16C14.36 12.528 14.492 13 14.492 13.576C14.492 14.056 14.38 14.484 14.156 14.86C13.94 15.236 13.616 15.532 13.184 15.748C12.76 15.956 12.248 16.06 11.648 16.06C10.744 16.06 10.008 15.832 9.44 15.376C8.872 14.92 8.572 14.248 8.54 13.36H10.172C10.188 13.752 10.32 14.068 10.568 14.308C10.824 14.54 11.172 14.656 11.612 14.656C12.02 14.656 12.332 14.544 12.548 14.32C12.772 14.088 12.884 13.792 12.884 13.432C12.884 12.952 12.732 12.608 12.428 12.4C12.124 12.192 11.652 12.088 11.012 12.088H10.664V10.708H11.012C12.148 10.708 12.716 10.328 12.716 9.568C12.716 9.224 12.612 8.956 12.404 8.764C12.204 8.572 11.912 8.476 11.528 8.476C11.152 8.476 10.86 8.58 10.652 8.788C10.452 8.988 10.336 9.244 10.304 9.556H8.66Z" fill="#FCFCFD"/>
<rect x="1" y="1" width="22" height="22" rx="11" stroke="#FCFCFD" stroke-width="2"/>
</svg>
