<svg width="24" height="24" viewBox="0 0 24 24" fill="none" xmlns="http://www.w3.org/2000/svg">
<rect x="1" y="1" width="22" height="22" rx="11" fill="#23262F"/>
<path d="M9.164 14.104C9.932 13.464 10.544 12.932 11 12.508C11.456 12.076 11.836 11.628 12.14 11.164C12.444 10.7 12.596 10.244 12.596 9.796C12.596 9.388 12.5 9.068 12.308 8.836C12.116 8.604 11.82 8.488 11.42 8.488C11.02 8.488 10.712 8.624 10.496 8.896C10.28 9.16 10.168 9.524 10.16 9.988H8.528C8.56 9.028 8.844 8.3 9.38 7.804C9.924 7.308 10.612 7.06 11.444 7.06C12.356 7.06 13.056 7.304 13.544 7.792C14.032 8.272 14.276 8.908 14.276 9.7C14.276 10.324 14.108 10.92 13.772 11.488C13.436 12.056 13.052 12.552 12.62 12.976C12.188 13.392 11.624 13.896 10.928 14.488H14.468V15.88H8.54V14.632L9.164 14.104Z" fill="#FCFCFD"/>
<rect x="1" y="1" width="22" height="22" rx="11" stroke="#FCFCFD" stroke-width="2"/>
</svg>
