<svg width="17" height="16" viewBox="0 0 17 16" fill="none" xmlns="http://www.w3.org/2000/svg">
<path fill-rule="evenodd" clip-rule="evenodd" d="M8.20036 14.6668C11.8823 14.6668 14.867 11.6821 14.867 8.00016C14.867 4.31826 11.8823 1.3335 8.20036 1.3335C4.51846 1.3335 1.53369 4.31826 1.53369 8.00016C1.53369 11.6821 4.51846 14.6668 8.20036 14.6668ZM12.4136 11.2706C13.1156 10.3675 13.5337 9.23266 13.5337 8.00016C13.5337 5.28042 11.4979 3.03616 8.86702 2.70809V5.41751C10.0172 5.71354 10.867 6.7576 10.867 8.00016C10.867 8.49473 10.7324 8.95785 10.4978 9.35487L12.4136 11.2706ZM11.4707 12.2134L9.55494 10.2977C9.15795 10.5322 8.69487 10.6668 8.20036 10.6668C7.70584 10.6668 7.24277 10.5322 6.84578 10.2977L4.92999 12.2134C5.8331 12.9155 6.96791 13.3335 8.20036 13.3335C9.43281 13.3335 10.5676 12.9155 11.4707 12.2134ZM5.53369 8.00016C5.53369 8.49473 5.66833 8.95785 5.90294 9.35487L3.98716 11.2706C3.2851 10.3675 2.86702 9.23266 2.86702 8.00016C2.86702 5.28042 4.90282 3.03616 7.53369 2.70809V5.41751C6.38354 5.71354 5.53369 6.7576 5.53369 8.00016ZM8.20036 9.3335C8.93674 9.3335 9.53369 8.73654 9.53369 8.00016C9.53369 7.26378 8.93674 6.66683 8.20036 6.66683C7.46398 6.66683 6.86702 7.26378 6.86702 8.00016C6.86702 8.73654 7.46398 9.3335 8.20036 9.3335Z" fill="#FCFCFD"/>
</svg>
