<svg width="25" height="24" viewBox="0 0 25 24" fill="none" xmlns="http://www.w3.org/2000/svg">
<path fill-rule="evenodd" clip-rule="evenodd" d="M12.3999 4C10.4477 4 8.64807 4.161 7.20361 4.35177C5.90363 4.52346 4.92337 5.50372 4.75168 6.80371C4.56091 8.24816 4.3999 10.0478 4.3999 12C4.3999 13.9522 4.56091 15.7518 4.75168 17.1963C4.92337 18.4963 5.90363 19.4765 7.20361 19.6482C8.64806 19.839 10.4477 20 12.3999 20C14.3521 20 16.1517 19.839 17.5962 19.6482C18.8962 19.4765 19.8764 18.4963 20.0481 17.1963C20.2389 15.7518 20.3999 13.9522 20.3999 12C20.3999 10.0478 20.2389 8.24816 20.0481 6.80371C19.8764 5.50372 18.8962 4.52346 17.5962 4.35177C16.1517 4.16101 14.3521 4 12.3999 4ZM6.94174 2.36899C4.74495 2.65912 3.05903 4.34504 2.76889 6.54184C2.56944 8.05208 2.3999 9.94127 2.3999 12C2.3999 14.0587 2.56944 15.9479 2.76889 17.4582C3.05903 19.655 4.74495 21.3409 6.94174 21.631C8.45198 21.8305 10.3412 22 12.3999 22C14.4586 22 16.3478 21.8305 17.8581 21.631C20.0549 21.3409 21.7408 19.655 22.0309 17.4582C22.2304 15.9479 22.3999 14.0587 22.3999 12C22.3999 9.94127 22.2304 8.05208 22.0309 6.54184C21.7408 4.34504 20.0549 2.65912 17.8581 2.36899C16.3478 2.16953 14.4586 2 12.3999 2C10.3412 2 8.45198 2.16953 6.94174 2.36899Z" fill="#B1B5C4"/>
<path fill-rule="evenodd" clip-rule="evenodd" d="M12.3999 17C12.9522 17 13.3999 16.5523 13.3999 16V13H16.3999C16.9522 13 17.3999 12.5523 17.3999 12C17.3999 11.4477 16.9522 11 16.3999 11H13.3999V8C13.3999 7.44772 12.9522 7 12.3999 7C11.8476 7 11.3999 7.44772 11.3999 8V11H8.3999C7.84762 11 7.3999 11.4477 7.3999 12C7.3999 12.5523 7.84762 13 8.3999 13H11.3999V16C11.3999 16.5523 11.8476 17 12.3999 17Z" fill="#B1B5C4"/>
</svg>
