<svg width="640" height="48" viewBox="0 0 640 48" fill="none" xmlns="http://www.w3.org/2000/svg">
<g filter="url(#filter0_d_6103_17235)">
<rect x="8" width="624" height="40" rx="20" fill="#FCFCFD"/>
<path d="M31.7002 12.3856C31.7002 10.0351 34.2807 8.59761 36.2793 9.83482L48.5797 17.4494C50.4743 18.6222 50.4743 21.3781 48.5797 22.551L36.2793 30.1655C34.2807 31.4027 31.7002 29.9652 31.7002 27.6147V12.3856Z" fill="#141416"/>
<rect x="76" y="16" width="383" height="8" rx="4" fill="#E6E8EC"/>
<rect x="76" y="16" width="40" height="8" rx="4" fill="#3772FF"/>
<path d="M484.968 23.52C485.992 22.6347 486.797 21.9093 487.384 21.344C487.981 20.768 488.477 20.1707 488.872 19.552C489.267 18.9333 489.464 18.3147 489.464 17.696C489.464 17.056 489.309 16.5547 489 16.192C488.701 15.8293 488.227 15.648 487.576 15.648C486.947 15.648 486.456 15.8507 486.104 16.256C485.763 16.6507 485.581 17.184 485.56 17.856H483.8C483.832 16.64 484.195 15.712 484.888 15.072C485.592 14.4213 486.483 14.096 487.56 14.096C488.723 14.096 489.629 14.416 490.28 15.056C490.941 15.696 491.272 16.5493 491.272 17.616C491.272 18.384 491.075 19.1253 490.68 19.84C490.296 20.544 489.832 21.1787 489.288 21.744C488.755 22.2987 488.072 22.944 487.24 23.68L486.52 24.32H491.592V25.84H483.816V24.512L484.968 23.52ZM494.17 26.112C493.84 26.112 493.562 26 493.338 25.776C493.114 25.552 493.002 25.2747 493.002 24.944C493.002 24.6133 493.114 24.336 493.338 24.112C493.562 23.888 493.84 23.776 494.17 23.776C494.49 23.776 494.762 23.888 494.986 24.112C495.21 24.336 495.322 24.6133 495.322 24.944C495.322 25.2747 495.21 25.552 494.986 25.776C494.762 26 494.49 26.112 494.17 26.112ZM494.17 19.392C493.84 19.392 493.562 19.28 493.338 19.056C493.114 18.832 493.002 18.5547 493.002 18.224C493.002 17.8933 493.114 17.616 493.338 17.392C493.562 17.168 493.84 17.056 494.17 17.056C494.49 17.056 494.762 17.168 494.986 17.392C495.21 17.616 495.322 17.8933 495.322 18.224C495.322 18.5547 495.21 18.832 494.986 19.056C494.762 19.28 494.49 19.392 494.17 19.392ZM498.124 23.52C499.148 22.6347 499.954 21.9093 500.54 21.344C501.138 20.768 501.634 20.1707 502.028 19.552C502.423 18.9333 502.62 18.3147 502.62 17.696C502.62 17.056 502.466 16.5547 502.156 16.192C501.858 15.8293 501.383 15.648 500.732 15.648C500.103 15.648 499.612 15.8507 499.26 16.256C498.919 16.6507 498.738 17.184 498.716 17.856H496.956C496.988 16.64 497.351 15.712 498.044 15.072C498.748 14.4213 499.639 14.096 500.716 14.096C501.879 14.096 502.786 14.416 503.436 15.056C504.098 15.696 504.428 16.5493 504.428 17.616C504.428 18.384 504.231 19.1253 503.836 19.84C503.452 20.544 502.988 21.1787 502.444 21.744C501.911 22.2987 501.228 22.944 500.396 23.68L499.676 24.32H504.748V25.84H496.972V24.512L498.124 23.52ZM506.351 20.016C506.351 18.1707 506.66 16.7307 507.279 15.696C507.908 14.6507 508.985 14.128 510.511 14.128C512.036 14.128 513.108 14.6507 513.727 15.696C514.356 16.7307 514.671 18.1707 514.671 20.016C514.671 21.8827 514.356 23.344 513.727 24.4C513.108 25.4453 512.036 25.968 510.511 25.968C508.985 25.968 507.908 25.4453 507.279 24.4C506.66 23.344 506.351 21.8827 506.351 20.016ZM512.879 20.016C512.879 19.152 512.82 18.4213 512.703 17.824C512.596 17.2267 512.372 16.7413 512.031 16.368C511.689 15.984 511.183 15.792 510.511 15.792C509.839 15.792 509.332 15.984 508.991 16.368C508.649 16.7413 508.42 17.2267 508.303 17.824C508.196 18.4213 508.143 19.152 508.143 20.016C508.143 20.912 508.196 21.664 508.303 22.272C508.409 22.88 508.633 23.3707 508.975 23.744C509.327 24.1173 509.839 24.304 510.511 24.304C511.183 24.304 511.689 24.1173 512.031 23.744C512.383 23.3707 512.612 22.88 512.719 22.272C512.825 21.664 512.879 20.912 512.879 20.016Z" fill="#23262F"/>
<path d="M556 12C555.448 12 555 12.4477 555 13C555 13.5523 555.448 14 556 14C559.314 14 562 16.6863 562 20C562 23.3137 559.314 26 556 26C555.448 26 555 26.4477 555 27C555 27.5523 555.448 28 556 28C560.418 28 564 24.4183 564 20C564 15.5817 560.418 12 556 12Z" fill="#777E91"/>
<path d="M556 16C555.448 16 555 16.4477 555 17C555 17.5523 555.448 18 556 18C557.105 18 558 18.8954 558 20C558 21.1046 557.105 22 556 22C555.448 22 555 22.4477 555 23C555 23.5523 555.448 24 556 24C558.209 24 560 22.2091 560 20C560 17.7909 558.209 16 556 16Z" fill="#777E91"/>
<path d="M545 16.9998L549.632 12.6572C550.909 11.4597 553 12.3654 553 14.1163V25.8833C553 27.6342 550.909 28.5399 549.632 27.3424L545 22.9998H542C540.895 22.9998 540 22.1044 540 20.9998V18.9998C540 17.8952 540.895 16.9998 542 16.9998H545Z" fill="#777E91"/>
<path fill-rule="evenodd" clip-rule="evenodd" d="M590.369 14.5418C590.659 12.345 592.345 10.6591 594.542 10.369C596.052 10.1695 597.941 10 600 10C602.059 10 603.948 10.1695 605.458 10.369C607.655 10.6591 609.341 12.345 609.631 14.5418C609.83 16.0521 610 17.9413 610 20C610 22.0587 609.83 23.9479 609.631 25.4582C609.341 27.655 607.655 29.3409 605.458 29.631C603.948 29.8305 602.059 30 600 30C597.941 30 596.052 29.8305 594.542 29.631C592.345 29.3409 590.659 27.655 590.369 25.4582C590.17 23.9479 590 22.0587 590 20C590 17.9413 590.17 16.0521 590.369 14.5418ZM593 22C593.552 22 594 22.4477 594 23V25C594 25.5523 594.448 26 595 26H597C597.552 26 598 26.4477 598 27C598 27.5523 597.552 28 597 28H595C593.343 28 592 26.6569 592 25V23C592 22.4477 592.448 22 593 22ZM606 23C606 22.4477 606.448 22 607 22C607.552 22 608 22.4477 608 23V25C608 26.6569 606.657 28 605 28H603C602.448 28 602 27.5523 602 27C602 26.4477 602.448 26 603 26H605C605.552 26 606 25.5523 606 25V23ZM593 18C593.552 18 594 17.5523 594 17V15C594 14.4477 594.448 14 595 14H597C597.552 14 598 13.5523 598 13C598 12.4477 597.552 12 597 12H595C593.343 12 592 13.3431 592 15V17C592 17.5523 592.448 18 593 18ZM606 17C606 17.5523 606.448 18 607 18C607.552 18 608 17.5523 608 17V15C608 13.3431 606.657 12 605 12H603C602.448 12 602 12.4477 602 13C602 13.5523 602.448 14 603 14H605C605.552 14 606 14.4477 606 15V17Z" fill="#777E91"/>
</g>
<defs>
<filter id="filter0_d_6103_17235" x="0" y="0" width="640" height="56" filterUnits="userSpaceOnUse" color-interpolation-filters="sRGB">
<feFlood flood-opacity="0" result="BackgroundImageFix"/>
<feColorMatrix in="SourceAlpha" type="matrix" values="0 0 0 0 0 0 0 0 0 0 0 0 0 0 0 0 0 0 127 0" result="hardAlpha"/>
<feMorphology radius="8" operator="erode" in="SourceAlpha" result="effect1_dropShadow_6103_17235"/>
<feOffset dy="8"/>
<feGaussianBlur stdDeviation="8"/>
<feColorMatrix type="matrix" values="0 0 0 0 0.0583333 0 0 0 0 0.0583333 0 0 0 0 0.0583333 0 0 0 0.2 0"/>
<feBlend mode="multiply" in2="BackgroundImageFix" result="effect1_dropShadow_6103_17235"/>
<feBlend mode="normal" in="SourceGraphic" in2="effect1_dropShadow_6103_17235" result="shape"/>
</filter>
</defs>
</svg>
